HIERARCHY
ROOT root
{
	OFFSET 0.000000 0.000000 0.000000
	CHANNELS 6 Xposition Yposition Zposition Zrotation Yrotation Xrotation
	JOINT lhip
	{
		OFFSET 0.058581 -0.082280 -0.017664
		CHANNELS 3 Zrotation Yrotation Xrotation
		JOINT lknee
		{
			OFFSET 0.043451 -0.386469 0.008037
			CHANNELS 3 Zrotation Yrotation Xrotation
			JOINT lankle
			{
				OFFSET -0.014790 -0.426874 -0.037428
				CHANNELS 3 Zrotation Yrotation Xrotation
				JOINT ltoe
				{
					OFFSET 0.041054 -0.060286 0.122042
					CHANNELS 3 Zrotation Yrotation Xrotation
					End Site
					{
						OFFSET 0.000000 0.000000 0.000000
					}
				}
			}
		}
	}
	JOINT rhip
	{
		OFFSET -0.060310 -0.090513 -0.013543
		CHANNELS 3 Zrotation Yrotation Xrotation
		JOINT rknee
		{
			OFFSET -0.043257 -0.383688 -0.004843
			CHANNELS 3 Zrotation Yrotation Xrotation
			JOINT rankle
			{
				OFFSET 0.019056 -0.420046 -0.034562
				CHANNELS 3 Zrotation Yrotation Xrotation
				JOINT rtoe
				{
					OFFSET -0.034840 -0.062106 0.130323
					CHANNELS 3 Zrotation Yrotation Xrotation
					End Site
					{
						OFFSET 0.000000 0.000000 0.000000
					}
				}
			}
		}
	}
	JOINT lowerback
	{
		OFFSET 0.004439 0.124404 -0.038385
		CHANNELS 3 Zrotation Yrotation Xrotation
		JOINT upperback
		{
			OFFSET 0.004488 0.137956 0.026820
			CHANNELS 3 Zrotation Yrotation Xrotation
			JOINT chest
			{
				OFFSET -0.002265 0.056032 0.002855
				CHANNELS 3 Zrotation Yrotation Xrotation
				JOINT lowerneck
				{
					OFFSET -0.013390 0.211636 -0.033468
					CHANNELS 3 Zrotation Yrotation Xrotation
					JOINT upperneck
					{
						OFFSET 0.010113 0.088937 0.050410
						CHANNELS 3 Zrotation Yrotation Xrotation
						End Site
						{
							OFFSET 0.000000 0.000000 0.000000
						}
					}
				}
				JOINT lclavicle
				{
					OFFSET 0.071702 0.114000 -0.018898
					CHANNELS 3 Zrotation Yrotation Xrotation
					JOINT lshoulder
					{
						OFFSET 0.122921 0.045205 -0.019046
						CHANNELS 3 Zrotation Yrotation Xrotation
						JOINT lelbow
						{
							OFFSET 0.255332 -0.015649 -0.022946
							CHANNELS 3 Zrotation Yrotation Xrotation
							JOINT lwrist
							{
								OFFSET 0.265709 0.012698 -0.007375
								CHANNELS 3 Zrotation Yrotation Xrotation
								End Site
								{
									OFFSET 0.000000 0.000000 0.000000
								}
							}
						}
					}
				}
				JOINT rclavicle
				{
					OFFSET -0.082954 0.112472 -0.023707
					CHANNELS 3 Zrotation Yrotation Xrotation
					JOINT rshoulder
					{
						OFFSET -0.113228 0.046853 -0.008472
						CHANNELS 3 Zrotation Yrotation Xrotation
						JOINT relbow
						{
							OFFSET -0.260127 -0.014369 -0.031269
							CHANNELS 3 Zrotation Yrotation Xrotation
							JOINT rwrist
							{
								OFFSET -0.269108 0.006794 -0.006027
								CHANNELS 3 Zrotation Yrotation Xrotation
								End Site
								{
									OFFSET 0.000000 0.000000 0.000000
								}
							}
						}
					}
				}
			}
		}
	}
}
MOTION
Frames: 15
Frame Time: 0.033333
1.394888 0.451074 0.975475 -93.901627 5.855966 108.707746 11.526341 -1.500214 -37.528493 -3.830648 9.389593 27.481309 11.054489 13.453572 -27.836495 0.000000 -0.000000 0.000000 -2.436397 -0.075440 -38.060402 5.982566 -11.479201 23.967382 0.781885 -11.905315 -10.131842 0.000000 -0.000000 0.000000 0.030587 2.715576 14.611829 -2.226723 0.102392 0.002044 -1.425763 1.226969 -0.918423 -2.928164 10.594662 -6.611807 4.373954 9.405532 1.304260 -34.341841 -17.050050 12.086500 -42.434022 -9.446758 5.017732 14.833352 -25.156350 -13.626116 17.375679 -15.596937 -8.018059 28.046659 17.498732 13.923022 48.285688 11.189214 8.001654 -23.814437 43.023032 -13.326330 5.403721 15.817606 -12.547137 
1.395293 0.455815 0.966012 -93.177668 5.184978 109.860271 11.827774 -1.280495 -40.482674 -4.696649 9.495621 30.642589 11.926214 13.755893 -28.971821 0.000000 -0.000000 0.000000 -3.175530 -1.699322 -40.669055 7.241272 -11.046636 27.033235 1.092478 -12.583273 -11.113009 0.000000 -0.000000 0.000000 0.101885 2.516290 15.749487 -1.878775 -0.243247 -0.585084 -1.157836 0.953153 -0.110841 -3.425681 8.519559 -9.426746 4.471613 7.931214 2.342002 -33.413469 -18.103165 11.727981 -42.898865 -9.964617 5.650524 14.450427 -25.728212 -11.257098 19.652972 -14.359543 -9.628854 26.863811 18.803121 13.900085 47.915659 12.879502 8.393952 -25.229854 43.266785 -14.298379 4.083264 15.508046 -14.089574 
1.396072 0.460740 0.955340 -92.357075 4.619106 111.036958 12.274880 -0.579693 -43.651766 -5.666457 10.023179 34.025917 12.321665 13.312498 -30.109535 0.000000 -0.000000 0.000000 -3.983448 -3.214404 -43.850877 8.376561 -11.509479 30.879014 1.174946 -12.696925 -12.475357 0.000000 -0.000000 0.000000 0.481651 2.125610 17.139301 -1.551115 -0.469460 -1.022613 -0.953356 0.627226 0.052709 -3.819470 6.412043 -11.170231 4.470406 7.114557 2.116763 -33.183926 -19.077774 11.591770 -42.551144 -10.518084 5.884333 14.315466 -26.557788 -9.703086 20.724791 -13.815365 -10.308458 26.304193 20.151369 14.353463 46.476806 14.708427 8.099655 -25.760392 43.099949 -15.399928 2.699219 15.346306 -14.846815 
1.398595 0.467675 0.938462 -91.633966 4.241097 112.620420 13.320926 1.042864 -48.087160 -7.277406 11.053074 38.747133 12.615393 12.529761 -31.607947 0.000000 -0.000000 0.000000 -5.179590 -4.686901 -48.113114 9.613022 -13.682299 35.809355 0.893692 -12.160154 -14.625312 0.000000 -0.000000 0.000000 1.339265 1.469702 19.248425 -1.247338 -0.474524 -1.794907 -0.808528 0.373273 0.059046 -4.157660 3.958093 -13.246112 4.626283 6.332179 1.353751 -32.751681 -20.196981 11.134979 -42.075272 -11.651821 5.999622 14.480232 -27.969514 -8.345323 22.065053 -13.246400 -10.690647 25.584765 22.058281 14.951161 44.050943 17.075785 6.978491 -25.535976 42.518625 -16.171246 0.987259 15.291821 -15.829111 
1.400704 0.472496 0.926384 -91.273054 4.184925 113.353812 13.967315 2.435216 -50.707173 -8.245546 11.657679 41.887849 12.696308 11.868587 -32.667403 0.000000 -0.000000 0.000000 -5.632469 -5.800549 -50.529693 10.210931 -15.266677 38.928940 0.468551 -11.549467 -16.097542 0.000000 -0.000000 0.000000 2.083199 0.943263 20.925113 -1.193546 -0.385154 -2.322638 -0.779890 0.323668 0.035167 -4.176837 2.396477 -14.694728 4.903752 6.012393 1.045837 -32.636043 -21.034526 10.471821 -41.395306 -12.251837 6.050860 14.598143 -28.969833 -7.914841 22.737908 -13.140810 -10.490570 25.579451 23.456161 15.057047 41.749944 18.120727 5.686988 -24.535031 41.948885 -16.393573 0.140347 15.545331 -15.738448 
1.402680 0.478545 0.909886 -90.893429 4.147064 113.829315 14.547605 4.577953 -53.674100 -9.376783 12.440191 46.182115 12.842095 10.781733 -34.285115 0.000000 -0.000000 0.000000 -5.696938 -7.783461 -53.277386 10.913288 -16.833286 43.337141 -0.065996 -10.451955 -18.165252 0.000000 -0.000000 0.000000 3.020156 0.155254 23.861345 -1.226809 -0.317226 -2.980824 -0.750078 0.352846 -0.261051 -4.078444 0.327145 -16.644359 5.479157 5.839137 0.756268 -32.860340 -22.443083 9.393072 -39.472984 -12.768603 6.086787 14.415609 -30.370365 -7.770411 23.849287 -13.223827 -9.651603 26.220359 25.707509 15.630139 37.489573 19.548074 3.321971 -22.360033 40.696786 -16.794898 -1.434000 15.994816 -14.738031 
1.403647 0.484113 0.893173 -90.801465 3.958168 114.173975 15.035202 6.690959 -56.338503 -10.393135 13.615924 50.298575 12.759239 9.730286 -35.846196 0.000000 -0.000000 0.000000 -5.750834 -9.820493 -56.019804 11.274856 -18.318971 48.046136 -0.413162 -8.972856 -20.217312 0.000000 -0.000000 0.000000 3.324803 -0.371963 27.080722 -1.131296 -0.452516 -3.493183 -0.518105 0.408027 -0.791232 -3.947225 -0.099291 -18.666449 5.796657 4.950786 0.096923 -33.323017 -24.181258 8.878460 -36.740567 -13.266049 5.631682 14.369777 -31.794915 -8.154809 24.632598 -13.750900 -8.670591 27.199322 28.028097 16.125731 32.397357 21.215790 0.326909 -19.061307 38.845915 -15.596155 -2.744682 16.641819 -12.974530 
1.403861 0.489076 0.876713 -90.922916 3.814810 114.499261 15.479218 8.898081 -58.703374 -11.227124 15.029221 54.181805 12.640339 8.723205 -37.271355 0.000000 -0.000000 0.000000 -5.827715 -11.580228 -58.676048 11.351694 -19.807416 52.660027 -0.623728 -7.281510 -22.003535 0.000000 -0.000000 0.000000 3.292027 -0.738678 30.764940 -0.978947 -0.630276 -4.271908 -0.170703 0.528865 -1.203529 -3.695262 0.415411 -21.380689 5.897592 3.751870 -0.424455 -33.419513 -26.382872 8.459831 -33.930418 -14.004148 4.999690 14.483356 -32.754593 -8.652824 25.412249 -14.531132 -7.906396 27.921000 30.668282 16.461795 27.301729 22.872007 -2.852434 -16.140905 36.552308 -13.496633 -3.481349 17.307181 -10.977999 
1.402283 0.493906 0.861033 -91.812044 3.607838 113.996999 15.579884 11.521545 -59.637261 -11.758401 16.444746 57.582307 12.571249 7.647662 -38.720196 0.000000 -0.000000 0.000000 -6.083946 -12.916421 -60.545159 10.845910 -20.998594 57.473754 -0.725255 -4.942578 -23.688849 0.000000 -0.000000 0.000000 2.596539 -0.630007 36.289748 -1.009006 -0.762476 -5.820957 0.431029 0.748333 -1.765826 -3.629706 1.543646 -24.092979 6.029409 2.407448 -1.174125 -32.896468 -28.898403 7.824451 -31.362847 -14.720273 4.394560 14.543417 -33.281026 -8.939949 26.605510 -15.132682 -7.697193 28.056283 33.712968 16.478855 22.931169 24.099492 -5.784967 -14.104982 34.078958 -11.480748 -4.643167 17.726554 -9.513534 
1.401817 0.499519 0.839856 -92.047966 3.507070 114.215074 15.930026 13.956658 -62.195682 -12.262850 17.710914 61.941473 12.646087 7.161199 -40.332237 0.000000 -0.000000 0.000000 -6.351216 -14.871459 -63.419171 10.683346 -22.772551 62.840745 -0.997819 -2.879443 -25.526697 0.000000 -0.000000 0.000000 2.526636 -0.805821 41.783549 -0.998373 -1.075613 -7.629047 0.958905 0.797241 -1.783322 -3.659128 2.813310 -27.847634 6.233901 0.921222 -1.511004 -30.951354 -32.611334 6.622184 -28.576238 -16.174461 3.593288 14.209408 -32.650813 -9.163023 28.189212 -15.640746 -7.987677 26.650217 37.662090 15.932346 18.503524 25.686527 -8.953118 -12.654392 30.420059 -10.447314 -6.717321 18.032422 -8.694222 
1.401581 0.504368 0.824159 -92.113898 3.458083 114.324965 16.226916 15.582878 -64.001984 -12.669687 18.345760 65.114672 12.627947 6.875664 -41.794057 0.000000 -0.000000 0.000000 -6.419781 -16.327201 -65.366015 10.553163 -23.999510 66.679553 -1.225471 -1.471701 -26.972352 0.000000 -0.000000 0.000000 2.508461 -0.802798 46.275120 -0.938234 -1.415429 -8.962720 1.437200 0.741248 -1.824298 -3.873510 4.048731 -30.803173 6.288100 -0.349479 -1.694016 -28.809521 -35.949874 5.507936 -25.961539 -17.405505 2.732924 13.530990 -31.378581 -9.537253 29.204957 -16.251074 -8.581555 24.934955 40.905425 15.052026 15.141437 26.746359 -11.305762 -11.731439 27.204690 -10.268593 -8.749374 18.273062 -8.209851 
1.400644 0.508490 0.809989 -92.047004 3.246593 114.334463 16.286405 16.776913 -65.656744 -13.051791 18.718607 68.015934 12.507004 6.711582 -42.943621 0.000000 -0.000000 0.000000 -6.488332 -17.997546 -66.971549 10.387071 -24.913043 70.222744 -1.303667 -0.050895 -28.248954 0.000000 -0.000000 0.000000 2.560012 -0.803062 51.099331 -0.832702 -1.940896 -10.449824 1.951535 0.564370 -1.854444 -4.303772 5.362080 -33.814978 6.255414 -1.546278 -1.748187 -26.164179 -39.385597 4.100735 -23.100064 -18.545432 1.613126 12.758347 -29.614534 -9.920181 29.917676 -16.985658 -9.282261 22.561012 44.116800 13.529661 12.073266 27.608636 -13.494989 -11.146007 24.121877 -10.310276 -10.389132 18.525007 -7.700277 
1.399190 0.512185 0.797101 -92.007659 2.970597 114.356252 16.292549 17.904026 -67.199435 -13.359506 19.176101 70.697305 12.248471 6.337383 -43.722786 0.000000 -0.000000 0.000000 -6.573565 -19.611058 -68.457696 10.098210 -25.652513 73.523807 -1.310195 1.336365 -29.293356 0.000000 -0.000000 0.000000 2.599875 -0.767170 55.907874 -0.705696 -2.529484 -11.930005 2.467503 0.334419 -1.819815 -4.924438 6.723577 -36.751065 6.268707 -2.766703 -1.811323 -22.742543 -42.626389 2.180341 -20.233705 -19.615425 0.188232 12.141530 -27.597293 -10.393575 30.101720 -17.671633 -10.061259 19.466162 47.016411 11.298410 9.373569 28.496349 -15.694343 -10.907368 21.444887 -10.563793 -11.514888 18.720307 -7.247030 
1.396866 0.515823 0.785586 -92.075918 2.692605 114.310117 16.273165 19.087492 -68.403123 -13.660799 19.686487 73.078157 11.873130 5.914720 -44.386001 0.000000 -0.000000 0.000000 -6.693352 -21.035714 -69.658433 9.686537 -26.239309 76.519526 -1.273540 2.724143 -30.267951 0.000000 -0.000000 0.000000 2.562569 -0.572272 60.680302 -0.520730 -3.158651 -13.352310 3.019811 0.089682 -1.672204 -5.729552 8.327108 -39.665346 6.229807 -4.180909 -1.845790 -18.553102 -45.456747 -0.304583 -17.400843 -20.603103 -1.642883 11.662677 -25.626927 -10.941643 30.324859 -18.267253 -10.662381 15.739482 49.399694 8.307547 6.903531 29.465747 -17.979751 -10.668265 19.433239 -10.699216 -12.999240 18.889654 -6.983460 
1.393945 0.519467 0.774889 -92.118440 2.495309 114.469416 16.163059 20.327144 -69.582870 -13.960163 20.106643 75.114517 11.634378 5.620272 -45.106394 0.000000 -0.000000 0.000000 -6.777223 -22.283961 -70.837570 9.391191 -26.785232 79.112728 -1.269945 3.911746 -31.225097 0.000000 -0.000000 0.000000 2.519856 -0.339232 64.894723 -0.240647 -3.772620 -14.615941 3.578665 -0.139028 -1.501270 -6.648669 9.894290 -42.344929 6.216473 -5.505093 -1.585815 -14.062583 -47.795032 -2.966639 -14.489996 -21.307195 -3.913502 11.303634 -24.022324 -11.647976 30.892986 -18.706288 -11.039144 11.646067 51.346505 5.043898 4.740785 30.282098 -20.274219 -10.764621 18.217197 -10.759831 -14.037511 19.103092 -6.694747 
